<?xml version="1.0" standalone="no"?>
<!DOCTYPE svg PUBLIC "-//W3C//DTD SVG 20010904//EN"
 "http://www.w3.org/TR/2001/REC-SVG-20010904/DTD/svg10.dtd">
<svg version="1.0" xmlns="http://www.w3.org/2000/svg"
 width="396.000000pt" height="358.000000pt" viewBox="0 0 396.000000 358.000000"
 preserveAspectRatio="xMidYMid meet">

<g transform="translate(0.000000,358.000000) scale(0.100000,-0.100000)"
fill="#000000" stroke="none">
<path d="M1681 3239 c-225 -38 -409 -178 -482 -368 -30 -77 -36 -197 -14 -280
9 -35 14 -66 11 -69 -3 -3 -36 -4 -73 -3 -47 1 -98 -7 -162 -24 -119 -32 -168
-54 -246 -110 -69 -49 -255 -240 -255 -262 0 -8 25 -26 56 -40 51 -23 63 -25
172 -21 l117 4 105 53 c58 28 106 48 108 43 1 -5 -36 -71 -83 -148 -101 -162
-149 -259 -165 -329 -8 -35 -10 -113 -5 -256 8 -243 1 -304 -58 -498 -36 -120
-41 -148 -42 -236 0 -98 1 -102 42 -185 92 -187 251 -288 409 -261 76 14 149
14 194 1 81 -23 152 -30 184 -16 46 19 63 44 102 142 46 117 56 131 106 144
117 28 161 78 159 180 -1 63 -19 119 -89 276 -27 61 -53 125 -56 141 -5 19 1
66 16 124 15 62 23 125 23 184 0 82 -3 97 -32 155 -18 36 -54 90 -80 122 -26
31 -82 96 -124 145 -41 48 -89 108 -106 133 -38 57 -96 170 -89 177 2 3 10 -6
17 -18 21 -39 111 -130 169 -169 114 -77 222 -121 337 -135 48 -6 53 -9 61
-38 5 -18 53 -242 107 -500 60 -281 103 -466 110 -463 5 2 9 9 7 15 -21 96
-202 967 -202 974 0 5 13 7 29 4 29 -6 29 -6 24 36 -3 23 -12 62 -19 85 -12
40 -11 44 5 39 9 -2 59 -13 110 -23 108 -22 133 -14 165 49 l18 38 -26 51
c-21 40 -24 53 -14 60 7 4 16 8 19 8 15 0 5 106 -13 132 -25 36 -23 40 21 61
60 27 58 40 -14 91 -35 25 -73 58 -85 73 l-22 28 34 6 c18 4 24 7 14 8 -17 1
-16 5 12 32 44 43 40 57 -5 20 -20 -17 -38 -29 -39 -28 -1 1 12 32 29 69 25
53 37 68 54 68 62 0 77 133 26 241 -44 93 -107 159 -203 208 -122 64 -235 82
-369 60z m424 -493 c54 -9 71 -16 73 -31 3 -14 0 -16 -14 -10 -11 4 -39 10
-64 12 -36 4 -49 1 -60 -13 -14 -16 -13 -17 5 -9 30 14 103 11 117 -3 11 -11
9 -17 -7 -31 -42 -35 -66 -80 -56 -100 13 -23 95 -96 133 -119 16 -9 28 -21
28 -26 0 -16 -32 -46 -49 -46 -9 0 -22 -4 -30 -9 -12 -8 -10 -16 12 -45 31
-40 33 -52 11 -64 -14 -8 -14 -10 0 -21 20 -17 21 -51 1 -51 -27 0 -27 -26 -1
-65 37 -53 38 -89 4 -117 -27 -23 -62 -22 -180 5 l-97 22 -89 100 c-116 130
-163 174 -242 227 -41 28 -66 52 -68 66 -4 28 36 117 73 160 35 42 95 73 126
65 30 -7 69 -42 69 -60 0 -12 -4 -11 -22 1 -12 9 -39 16 -60 16 -50 0 -78 -28
-78 -77 l1 -38 14 40 c8 22 15 41 15 42 0 0 14 6 31 12 32 11 89 -4 103 -27 4
-6 12 -62 20 -125 14 -120 19 -137 41 -137 23 0 28 32 31 225 1 105 3 196 3
203 1 18 59 41 101 41 19 0 66 -6 105 -13z m-921 -242 c21 -8 20 -22 -5 -124
l-21 -85 -89 -58 c-115 -75 -262 -144 -335 -158 -70 -13 -164 -6 -217 16 l-38
16 30 38 c63 79 228 226 296 264 38 21 73 35 79 33 6 -2 4 -5 -6 -5 -12 -1
-15 -7 -10 -26 4 -13 10 -25 15 -25 60 -1 70 1 59 12 -7 7 -12 24 -12 39 0 28
11 32 155 62 32 7 82 7 99 1z m99 -1 c4 -3 -3 -17 -14 -29 l-22 -23 28 -11
c36 -14 55 1 34 26 -12 15 -12 17 1 12 19 -6 24 -51 15 -155 -7 -88 -24 -127
-46 -105 -7 6 -21 12 -30 12 -9 0 -27 8 -40 19 l-23 18 23 104 c25 113 50 157
74 132z m207 -101 l75 -37 -40 -5 c-28 -4 -35 -7 -23 -12 10 -4 15 -14 12 -21
-3 -9 3 -17 18 -21 43 -11 49 -8 45 23 l-5 30 61 -49 c71 -55 243 -238 274
-290 22 -37 37 -82 47 -139 l6 -34 -93 6 c-209 12 -425 137 -510 295 -22 41
-26 56 -17 71 5 11 13 68 17 126 l6 106 26 -6 c14 -3 60 -22 101 -43z"/>
<path d="M1994 2501 c-33 -14 -54 -51 -54 -92 0 -82 110 -120 171 -60 38 38
39 80 2 121 -30 33 -82 46 -119 31z"/>
<path d="M1650 2473 c0 -6 8 -17 18 -24 16 -13 16 -13 2 6 -8 11 -16 22 -17
24 -2 2 -3 0 -3 -6z"/>
<path d="M1711 2391 c19 -24 42 -53 52 -65 17 -19 17 -19 8 -1 -6 11 -29 40
-52 65 l-41 45 33 -44z"/>
<path d="M1036 2436 c3 -8 1 -17 -5 -21 -16 -9 -13 -25 4 -25 8 0 15 -6 15
-14 0 -15 24 -28 34 -19 3 4 6 14 6 24 0 9 10 20 23 24 19 6 19 8 5 12 -10 2
-18 11 -18 19 0 9 -11 14 -35 14 -25 0 -33 -4 -29 -14z"/>
<path d="M830 2295 c0 -7 -8 -19 -17 -24 -10 -6 -13 -11 -6 -11 6 0 13 -10 15
-22 2 -17 9 -22 23 -20 11 2 27 3 36 3 22 0 21 71 -1 81 -26 12 -50 9 -50 -7z"/>
<path d="M1016 2285 c-3 -8 -13 -15 -22 -15 -13 0 -14 -3 -5 -14 6 -7 8 -21 4
-31 -5 -16 -1 -15 36 6 23 13 38 25 32 27 -6 2 -11 12 -11 23 0 22 -25 26 -34
4z"/>
<path d="M609 2207 c-14 -7 -24 -18 -22 -24 3 -7 -3 -13 -14 -13 -17 -1 -17
-1 0 -11 9 -5 17 -19 17 -29 0 -21 15 -27 25 -10 3 6 20 10 37 10 29 0 30 1
15 18 -10 10 -17 31 -17 45 0 30 -3 31 -41 14z"/>
<path d="M1223 2306 c0 -6 -4 -18 -8 -28 -8 -20 22 -32 59 -22 30 7 29 5 16
38 -7 19 -16 24 -38 24 -16 -1 -29 -6 -29 -12z"/>
<path d="M1406 2224 c-26 -25 -26 -27 -9 -40 10 -7 14 -14 8 -14 -9 0 42 -30
51 -30 2 0 4 11 4 25 0 17 6 25 18 26 13 0 12 2 -5 9 -13 5 -23 16 -23 24 0
26 -16 26 -44 0z"/>
<path d="M1655 2231 c-3 -6 -2 -11 3 -11 5 0 12 -9 15 -21 7 -28 32 -19 32 12
0 17 -6 25 -22 27 -11 2 -24 -2 -28 -7z"/>
<path d="M1696 2105 c-3 -8 -15 -15 -26 -15 -11 0 -20 -4 -20 -10 0 -5 4 -10
9 -10 5 0 11 -8 13 -17 2 -12 15 -17 44 -19 39 -2 41 -1 41 27 0 18 -6 29 -14
29 -7 0 -16 7 -19 15 -4 8 -10 15 -14 15 -4 0 -10 -7 -14 -15z"/>
<path d="M1520 2039 c0 -11 -7 -19 -17 -19 -15 0 -15 -1 1 -19 11 -12 30 -18
56 -18 34 0 38 2 30 17 -6 11 -5 21 2 28 15 15 11 18 -34 25 -33 5 -38 3 -38
-14z"/>
<path d="M1865 2000 c19 -21 35 -18 35 6 0 9 -10 14 -27 14 -25 0 -26 -1 -8
-20z"/>
<path d="M1744 1945 c-21 -23 -21 -25 -3 -30 10 -4 19 -13 19 -21 0 -16 16
-19 24 -5 3 5 16 7 29 3 20 -5 21 -4 8 12 -10 12 -11 20 -3 28 8 8 5 15 -15
25 -33 17 -34 17 -59 -12z"/>
<path d="M2187 1864 c-4 -4 -7 -12 -7 -18 0 -6 5 -5 12 2 17 17 38 15 38 -3 0
-9 -11 -38 -25 -65 l-25 -50 35 0 c19 0 35 4 35 9 0 4 -11 6 -25 3 -30 -5 -31
1 -4 44 25 41 22 78 -6 82 -12 2 -24 0 -28 -4z"/>
<path d="M2291 1856 c-7 -8 -11 -35 -9 -62 6 -90 68 -81 68 11 0 57 -31 84
-59 51z m43 -22 c14 -56 -20 -126 -38 -78 -8 21 -8 89 1 97 14 15 31 6 37 -19z"/>
<path d="M2381 1853 c0 -11 3 -13 6 -5 2 6 14 12 25 12 22 0 19 -17 -13 -82
-11 -21 -19 -40 -19 -43 0 -8 58 -6 64 3 3 5 -9 6 -25 4 l-30 -4 27 49 c31 56
28 83 -11 83 -17 0 -25 -5 -24 -17z"/>
<path d="M2470 1845 c0 -18 5 -25 19 -25 10 0 22 -7 25 -16 7 -19 -18 -64 -36
-64 -6 0 -8 -3 -5 -7 12 -11 57 39 57 64 0 16 -7 24 -25 29 -14 3 -25 13 -25
21 0 11 7 14 25 11 14 -3 25 -1 25 3 0 5 -13 9 -30 9 -25 0 -30 -4 -30 -25z"/>
<path d="M2205 1450 c0 -137 2 -150 18 -150 16 0 17 9 11 110 -4 67 -3 110 2
110 6 0 25 -46 44 -102 l34 -103 30 97 c17 53 35 100 39 105 5 4 7 -43 5 -105
-3 -109 -2 -112 19 -112 20 0 21 3 16 78 -3 42 -1 110 4 150 l9 72 -31 0 c-30
0 -31 -2 -54 -85 -24 -88 -36 -108 -45 -78 -47 164 -47 163 -74 163 l-27 0 0
-150z"/>
<path d="M2540 1587 c-35 -18 -50 -53 -50 -122 0 -113 59 -184 129 -156 38 17
61 60 68 133 4 46 1 73 -10 101 -23 53 -81 72 -137 44z m79 -16 c20 -13 30
-85 21 -158 -9 -69 -22 -93 -51 -93 -29 0 -48 40 -55 115 -10 112 27 172 85
136z"/>
<path d="M2734 1578 c14 -49 46 -220 46 -248 0 -26 4 -30 29 -30 24 0 34 9 59
48 34 52 47 97 57 190 l7 62 -30 0 c-30 0 -31 -1 -20 -31 6 -18 8 -56 5 -90
-7 -62 -45 -156 -57 -142 -9 9 -50 205 -50 239 0 19 -5 24 -26 24 -23 0 -25
-3 -20 -22z"/>
<path d="M2985 1450 c0 -143 1 -150 20 -150 19 0 20 7 20 150 0 143 -1 150
-20 150 -19 0 -20 -7 -20 -150z"/>
<path d="M3108 1471 c3 -83 0 -136 -7 -150 -11 -21 -10 -21 63 -21 76 0 86 5
86 48 0 13 -4 11 -16 -6 -10 -15 -25 -22 -48 -22 -39 0 -46 14 -46 93 0 67 14
90 50 82 16 -3 31 -2 35 4 4 7 -8 11 -33 11 -32 0 -41 4 -45 21 -3 11 -3 27 0
35 8 21 60 17 83 -6 15 -15 20 -16 20 -6 0 40 -11 46 -79 46 l-66 0 3 -129z"/>
<path d="M2233 1230 c-51 -21 -37 -89 33 -161 36 -37 45 -52 42 -75 -6 -59
-78 -37 -78 24 0 21 -2 22 -15 12 -19 -15 -20 -54 -2 -69 23 -18 73 -24 98
-11 32 17 39 29 39 68 0 25 -12 45 -56 93 -62 68 -69 102 -22 107 22 3 32 -3
48 -30 l20 -33 0 43 0 42 -42 -1 c-24 0 -53 -4 -65 -9z"/>
<path d="M2387 1234 c-4 -4 -7 -19 -6 -33 l0 -26 16 23 c8 12 24 22 35 22 19
0 19 -7 16 -140 l-3 -140 32 0 c31 0 32 1 23 26 -11 28 -14 213 -4 238 10 25
42 19 59 -11 l15 -28 -2 35 -3 35 -85 3 c-47 1 -89 0 -93 -4z"/>
<path d="M2660 1227 c-35 -18 -50 -53 -50 -122 0 -113 59 -184 129 -156 38 17
61 60 68 133 4 46 1 73 -10 101 -23 53 -81 72 -137 44z m79 -16 c20 -13 30
-85 21 -158 -9 -69 -22 -93 -51 -93 -29 0 -48 40 -55 115 -10 112 27 172 85
136z"/>
<path d="M2870 1220 c7 -13 10 -70 8 -150 l-3 -130 25 0 25 0 -3 96 c-3 95 -3
96 19 92 20 -3 25 -13 36 -68 20 -101 30 -120 65 -120 l30 0 -18 28 c-27 41
-51 93 -57 128 -5 25 0 35 24 58 55 52 18 86 -94 86 -65 0 -67 -1 -57 -20z
m128 -32 c3 -22 -2 -29 -22 -34 -39 -9 -56 1 -56 36 0 30 2 31 38 28 32 -3 37
-7 40 -30z"/>
<path d="M3108 1111 c2 -82 -1 -137 -8 -150 -10 -20 -9 -21 64 -21 76 0 86 5
86 48 0 13 -4 11 -16 -6 -10 -15 -25 -22 -48 -22 -39 0 -46 14 -46 101 0 64
14 83 53 74 14 -4 28 -2 31 4 5 7 -7 11 -33 11 -42 0 -58 19 -45 54 10 25 69
21 88 -6 17 -24 20 -18 10 20 -6 20 -12 22 -73 22 l-66 0 3 -129z"/>
</g>
</svg>
